<?xml version="1.0" encoding="UTF-8"?>
<svg id="Ebene_2" data-name="Ebene 2" xmlns="http://www.w3.org/2000/svg" xmlns:xlink="http://www.w3.org/1999/xlink" viewBox="0 0 818.11 802.56">
  <defs>
    <style>
      .cls-1 {
        fill: #848382;
      }

      .cls-1, .cls-2, .cls-3, .cls-4, .cls-5, .cls-6, .cls-7, .cls-8, .cls-9, .cls-10, .cls-11, .cls-12, .cls-13, .cls-14, .cls-15, .cls-16, .cls-17, .cls-18, .cls-19, .cls-20, .cls-21, .cls-22, .cls-23, .cls-24, .cls-25, .cls-26, .cls-27, .cls-28, .cls-29, .cls-30, .cls-31, .cls-32, .cls-33, .cls-34, .cls-35, .cls-36, .cls-37, .cls-38, .cls-39, .cls-40 {
        stroke-width: 0px;
      }

      .cls-2 {
        fill: #3c3c3b;
      }

      .cls-3 {
        fill: #5b5858;
      }

      .cls-4 {
        fill: #30ae7a;
      }

      .cls-5 {
        fill: #a5a2a2;
      }

      .cls-6 {
        fill: #646061;
      }

      .cls-7 {
        fill: #716e6e;
      }

      .cls-8 {
        fill: #575455;
      }

      .cls-9 {
        fill: #807e7e;
      }

      .cls-10 {
        fill: #403e3f;
      }

      .cls-11 {
        fill: #5f6060;
      }

      .cls-12 {
        fill: #3e3d3d;
      }

      .cls-13 {
        fill: url(#Unbenannter_Verlauf_40);
      }

      .cls-14 {
        fill: #bab7b8;
      }

      .cls-15 {
        fill: #6b6768;
      }

      .cls-16 {
        fill: #d2d0d1;
      }

      .cls-17 {
        fill: #666;
      }

      .cls-18 {
        fill: #bbb8b9;
      }

      .cls-19 {
        fill: #928e8f;
      }

      .cls-20 {
        fill: #777373;
      }

      .cls-21 {
        fill: #858182;
      }

      .cls-22 {
        fill: #403f3f;
      }

      .cls-23 {
        fill: #a4a0a1;
      }

      .cls-24 {
        fill: #101316;
      }

      .cls-25 {
        fill: #393839;
      }

      .cls-26 {
        fill: #271e22;
      }

      .cls-27 {
        fill: #1d1d1b;
      }

      .cls-28 {
        fill: #575756;
      }

      .cls-29 {
        fill: #005530;
      }

      .cls-30 {
        fill: #007849;
      }

      .cls-31 {
        fill: #fff;
      }

      .cls-32 {
        fill: #838181;
      }

      .cls-33 {
        fill: #9f9c9d;
      }

      .cls-34 {
        fill: #747272;
      }

      .cls-35 {
        fill: #696868;
      }

      .cls-36 {
        fill: #736f70;
      }

      .cls-37 {
        fill: #2d2d2e;
      }

      .cls-38 {
        fill: #05351f;
      }

      .cls-39 {
        fill: #6d6969;
      }

      .cls-40 {
        fill: #636363;
      }
    </style>
    <linearGradient id="Unbenannter_Verlauf_40" data-name="Unbenannter Verlauf 40" x1="285.68" y1="208.31" x2="271.4" y2="231.91" gradientTransform="translate(7.45 9.09) rotate(.29)" gradientUnits="userSpaceOnUse">
      <stop offset="0" stop-color="#616161"/>
      <stop offset="1" stop-color="#6a6969"/>
    </linearGradient>
  </defs>
  <g id="Robot-Folders">
    <g>
      <path class="cls-2" d="M393.97,770.45q-48.53,5.92-97.06,11.85c-35.43-9.78-261.45-77.01-277.7-84.61-63.42-29.66,47.25-50.3,85.99-70.47.07,19.85.27,39.75-1.06,59.59,80.09,21.35,217.16,67.2,289.83,83.64Z"/>
      <g>
        <path class="cls-28" d="M296.91,782.3q48.53-5.92,97.06-11.85c3.09.7,5.84,1.59,9.08,2.1.57.09,1.94,2.81,11.36,2.11,16.53-1.23,265.48-77.85,306.59-86.83,2.76-2.28-.83-3.92-.74-4.11,5.75-12.24,3-37.36,3.29-52.38,30.39,18.87,148.43,43.57,65.57,72.25-58.4,15.52-301.76,91.42-335.44,95.93-63.36,8.49-101.31-1.92-156.78-17.22Z"/>
        <path class="cls-27" d="M403.05,772.55c8.41.59,7.22-.91,7.58-.99,73.49-16.32,225.69-66.96,309.63-87.84-.09.2,3.5,1.83.74,4.11-41.11,8.99-290.06,85.61-306.59,86.83-9.42.7-10.78-2.02-11.36-2.11Z"/>
      </g>
    </g>
    <path class="cls-4" d="M409.07,272c-.23.52.1,1.39-.01,2.05-68.11,17.75-227.72,63.69-286.83,74.6-5.73,1.06-6.66,2.39-13.65.96-1.55-7.2-73.81-78.36-85.93-92.39q11.77-4.31,23.54-8.62,135.08-38.37,270.17-76.74c3.18-.44,3.5.52,5.3,1.57,6.44,3.75,72.27,87.14,87.42,98.56Z"/>
    <path class="cls-29" d="M722.29,348.29c-5.9-1.72-11.08-.02-16.68.94,0-.69.44-1.75-.75-2.06-98.41-25.87-199.3-47.99-297.45-74.43.11-.66-.22-1.53.01-2.05,3.82-8.89,64.72-80.32,78.53-94.13,102.86,27.51,208.23,51.31,309.54,81.17q-36.6,45.28-73.2,90.56Z"/>
    <path class="cls-38" d="M703.64,349.28c-44.38,7.64-231.32,66.17-294.44,80.73-93-28.73-189.66-51.69-283.79-78.48-1.88-.53-7.49-2.33-6.8-4.14,59.11-10.91,218.72-56.85,286.83-74.6,98.15,26.45,199.04,48.56,297.45,74.43,1.19.31.75,1.37.75,2.06Z"/>
    <g>
      <path class="cls-34" d="M503.67,322.45c-4.49,7.33-9.69,14.32-13.9,21.83-1.04,1.86-2.11,2.62-2.45,3.23-6.52.74-49.09-1.42-51.1.15-3.91,3.06-13.71,86.62-18.33,97.65-.13.04.02,2.26-1.23,2.43-.65.09-4.21-2.37-4.45-2.46-3.82-17.22-6.61-34.72-10.29-51.96,3.18,5.9,2.79-2.7,2.47-6.88-1.24-15.86-8.86-45.98-9.41-64.53,29.21-1.84,76.67,1.87,108.69.54Z"/>
      <path class="cls-33" d="M389.47,288.63c4.62,3.06,9.07,6,13.74,8.99,3.76,2.4,7,5.82,11.32,7.36-1.23,3.4-.82,6.26-.86,9.73-29.76-.15-59.47.55-89.23.37-.16-.27-1.4-.5-4.03-4.89,1.49-23.74-.04-47.63-.45-71.38,0-.27,0-.54,0-.81q7.12-3.61,14.23-7.23c19.91,34.95,24.75,37.66,55.27,57.87Z"/>
      <path class="cls-18" d="M487.33,347.52c-.09.16,1.47.95-.02,3.65-14.71,26.7-29.8,53.19-43.39,80.49-7.52,5.94-16.96,10.88-26.02,13.66,4.63-11.03,14.42-94.59,18.33-97.65,2.01-1.57,44.58.59,51.1-.15Z"/>
      <path class="cls-18" d="M391.61,347.85c2.71,15.32,7.08,30.29,10.32,45.47,3.67,17.24,6.47,34.74,10.29,51.96-10.18-3.45-18.74-9.58-28.32-13.93q-20.48-41.67-40.95-83.35c11.82.19,23.92-1.09,35.69-1.04.65,0,7.05,1.58,12.97.88Z"/>
      <g>
        <path class="cls-11" d="M413.68,314.71c13.72.07,87.95,2.3,92.46,1.27,1.34,1.82-1.13,4.29-2.47,6.48-32.02,1.33-79.48-2.38-108.69-.54-1.42.09-6.7-.46-7.3.37,1.01,8.55,2.43,17.1,3.93,25.57-5.92.7-12.32-.87-12.97-.88-.21-3.08-2.44-24.51-3.52-25.16-2.03-1.23-41.24.72-47.45-.24-.94-1.66-3.07-3.65-4.03-5.29-.05-.08,1.09-.75.82-1.21,29.75.19,59.47-.52,89.23-.37Z"/>
        <path class="cls-34" d="M378.64,346.98c-11.77-.05-23.87,1.22-35.69,1.04q20.48,41.67,40.95,83.35c-1.15-.52-2.18-1.16-3.24-1.64.3-3.36-2.52-5.44-4.83-7.32l1.63-1.21c-12.02-23.87-23.87-47.81-36.14-71.56-.1-.2.05-2.86-.79-4.47-4.13-7.96-8.45-15.79-12.86-23.59,6.21.96,45.42-.99,47.45.24,1.09.66,3.32,22.08,3.52,25.16Z"/>
      </g>
      <g>
        <path class="cls-11" d="M479.41,145.51c2.88,3.77,3.04,4.65,3.22,4.88-33.94,5.96-68.48,8.68-102.67,13.28q21.29.92,42.58,1.83c-27.03-.33-54.08-.13-81.11-.4h-.81c.45-.39,1.05-1.09,1.63-1.62,9.12,1.55,9.64-2.77,12.59-3.99,12.06-5,32.12-12.82,44.68-14.38,14-1.73,60.59.98,79.89.4Z"/>
        <path class="cls-11" d="M474.58,138.99c1.62,2.17,3.19,4.37,4.83,6.51-19.3.58-65.9-2.13-79.89-.4-12.56,1.55-32.62,9.38-44.68,14.38-2.95,1.22-3.47,5.55-12.59,3.99,6.41-5.8,15.21-18.22,22.03-25.04,27.8.52,83.93,1.02,110.31.55Z"/>
        <path class="cls-34" d="M496.34,166.68c-21.4-1.2-51.26-.91-73.81-1.18q-21.29-.92-42.58-1.83c34.2-4.59,68.73-7.32,102.67-13.28,4.32,5.45,10.19,10.16,13.71,16.29Z"/>
      </g>
      <path class="cls-7" d="M324.34,175.56c8.17,14.57,17.18,28.5,26.56,42.31,2.32,3.41,8.22,10.96,8.86,12.21.08.15-1.42-.22.79,3.25-.46-.16-6.51.31-9.73-.86-5.9-8.47-12.69-16.36-18.53-24.83-15.18-22.02-12.47-28.14-12.92-11.83-1.17-.75-1.81-.93-3.24-.83-1.18-12.8,1.71-18.46,1.72-19.46,2.08-.2,4.46.32,6.49.03Z"/>
      <g>
        <g>
          <path class="cls-13" d="M310.2,244.43c-6.28,3.6-18.07,11.3-22.78,13.68-.31.16-4.49,1.56-6.5,2.4-.67-2.33-1.93-2.36-2.42-3.26-2.02-3.72-5.47-9.44-6.43-11.39-.04-.08-1.29-.73-1.62-.82,1.44-13.13,2.43-26.54,2.63-39.73,4.12-2.59-.56-11.24,4.96-18.63.75,10.96,6.08,10.38,6.43,10.98,4.96,8.42,15.13,35.17,25.72,46.77Z"/>
          <path class="cls-11" d="M316.13,194.98c1.43-.1,2.07.07,3.24.83-.39,14.13.36,28.08.6,42.18,0,.27,0,.54,0,.81-.89.39-1.63,1.06-2.44,1.61-2.38,1.61-4.88,2.62-7.32,4.02-10.59-11.6-20.76-38.35-25.72-46.77-.36-.6-5.68-.02-6.43-10.98.52-.7.72-.71.82-.81,1.45,1.67,3.58,10.08,5.22,10.57,1.54.46,27.91-1.16,32.05-1.46Z"/>
        </g>
        <path class="cls-7" d="M317.85,175.52c0,.99-2.9,6.65-1.72,19.46-4.14.3-30.51,1.93-32.05,1.46-1.64-.49-3.77-8.9-5.22-10.57,2.26-2.36,28.77-20.64,36.24-28.21,1.49.21,2.76,16.08,2.75,17.86Z"/>
        <g>
          <path class="cls-21" d="M314.79,300.42c-7.52-12.05-15.74-23.76-23.34-35.81,6.04-4.61,15.4-8.07,21.15-12.06l2.19,47.87Z"/>
          <path class="cls-7" d="M320.42,310.18c-1.92-3.21-3.65-6.59-5.63-9.76l-2.19-47.87c4.94-3.43,9.68-4.97,4.93-12.14.81-.55,1.55-1.22,2.44-1.61.42,23.75,1.94,47.64.45,71.38Z"/>
          <path class="cls-6" d="M312.6,252.55c-5.75,3.99-15.11,7.45-21.15,12.06-1.36-2.15-3-4.15-4.02-6.51,4.71-2.38,16.5-10.08,22.78-13.68,2.44-1.4,4.94-2.41,7.32-4.02,4.76,7.17.02,8.71-4.93,12.14Z"/>
        </g>
      </g>
      <g>
        <path class="cls-34" d="M375.83,422.4c-3.89-3.17-17.41-10.29-23.45-14.72-15.46-11.34-29.73-24.59-45.24-35.92,10.79-9.3,21.94-18.13,33.39-26.6.84,1.61.68,4.26.79,4.47,12.28,23.75,24.12,47.69,36.14,71.56l-1.63,1.21Z"/>
        <path class="cls-35" d="M352.38,407.68c6.04,4.43,19.56,11.55,23.45,14.72,2.31,1.89,5.13,3.97,4.83,7.32-2.01-.92-4.48-1.53-6.48-2.47-15.29-7.16-26.68-10.76-41.67-20.49-.07-.04-.79,1.09-1.22.81-2.05-1.37-24.66-22.22-33.12-28.15-.19-1.98,4.49-4.21,6.52-6.05,3.39,7.54,12.14,10.12,18.18,14.69,8.76,6.64,27.18,25.23,29.51,19.61Z"/>
        <path class="cls-35" d="M307.13,371.76c15.51,11.32,29.79,24.57,45.24,35.92-2.33,5.61-20.75-12.97-29.51-19.61-6.03-4.57-14.79-7.15-18.18-14.69,2.3-2.08,2.33-1.51,2.44-1.61Z"/>
      </g>
      <g>
        <path class="cls-1" d="M530.14,382.61c1.3-1.94,2.59-2.49-.39-3.25-12.89,10.53-28.08,17.32-41.5,27.37-.26.19-2.74-2.76-2.86,4.04-9.49,5.05-18.88,10.41-28.47,15.27-4.21,2.13-8.53,4.1-13.01,5.61,13.59-27.3,28.68-53.79,43.39-80.49,1.49-2.7-.07-3.49.02-3.65.34-.61,1.41-1.37,2.45-3.23,13.94,12.76,30.15,23.32,43.62,36.31-1.91,2.51-3.12,1.87-3.25,2.01Z"/>
        <path class="cls-1" d="M530.14,382.61c-3.56,3.7-27.91,21.61-32.57,24.17-.59.32-.96-1.98-12.19,3.99.12-6.8,2.6-3.85,2.86-4.04,13.43-10.05,28.61-16.85,41.5-27.37,2.98.75,1.69,1.31.39,3.25Z"/>
      </g>
      <path class="cls-19" d="M575.19,456.65q3.66-1.2,7.31-2.4c.65,4.24,8.03,3.42-.5,18.65-11.1-2.08-5.97-7.54-6.81-16.26Z"/>
      <g>
        <path class="cls-18" d="M422.53,165.5c22.55.27,52.41-.03,73.81,1.18,3.29.18,9.72-.36,10.95.05.75.25,8.17,10.46,10.89,11.41-.53,6.2-.58,12.44-.9,18.65-.69,13.17-1.41,26.56-1.82,39.74-.07,2.16-.02,4.33-.03,6.49,0,.51-1.83,7.16-.86,10.13.46,1.41,21.58,14.7,25.07,15.94-4.14,6.23-30.09,46.1-33.49,46.88-4.51,1.03-78.74-1.2-92.46-1.27.04-3.47-.37-6.33.86-9.73,1.06-2.94,1.74-2.33,1.63-2.43-24.7-21.97-48.46-73.37-48.31-72.43l-8.11-.04c-.64-1.25-6.54-8.8-8.86-12.21q8.64-25.3,17.29-50.61l-27.17-.54q.21-.81.41-1.62c27.03.28,54.08.08,81.11.4Z"/>
        <g>
          <path class="cls-33" d="M341.42,165.1q-.21.81-.41,1.62l27.17.54q-8.64,25.3-17.29,50.61c-9.37-13.81-18.39-27.74-26.56-42.31,1.35-.19,1.47-.42,2.44-.8.57-.22,8.06-5.99,9.77-7.25.88-.65,2.57-1.14,4.07-2.41h.81Z"/>
          <path class="cls-18" d="M336.54,167.51c-1.71,1.26-9.2,7.03-9.77,7.25-3.88-8.4,3.95-11.29,9.77-7.25Z"/>
        </g>
      </g>
      <g>
        <path class="cls-19" d="M610.83,466.56c.18.11,1.5,1.6,1.61,1.63,1.93,2.73-5.72,17.86-8.18,13.75q.03-6.08.06-12.17c.91-1.91,2-3.2,3.27-4.85,1.06.58,2.21,1.02,3.24,1.64Z"/>
        <path class="cls-15" d="M604.27,481.94c-7.93-1.36-.91-10.13.06-12.17q-.03,6.08-.06,12.17Z"/>
      </g>
      <path class="cls-17" d="M611.68,460.07c-.36,2.7,1.87,4.68-.84,6.48-1.03-.62-2.18-1.06-3.24-1.64,1.31-1.69,2.76-6.99,4.08-4.85Z"/>
      <path class="cls-6" d="M367.86,230.12c.69,4.23,41.68,62.26,48.31,70.81-.12.29.06,1.05,0,1.62-.07.13-.57-.52-1.63,2.43-4.32-1.53-7.56-4.95-11.32-7.36.13-1.87.71-3.37.03-5.27-1.24-3.45-35.05-56.29-42.7-59.02-2.22-3.47-.72-3.1-.79-3.25l8.11.04Z"/>
      <g>
        <path class="cls-7" d="M529.99,249.58c5.32,2.71,11.19,5.74,16.18,9-1.71,3.79-4.26,7.07-6.54,10.51-3.49-1.24-24.61-14.53-25.07-15.94-.97-2.98.86-9.63.86-10.13,4.8,2.14,9.9,4.18,14.57,6.56Z"/>
        <g>
          <path class="cls-32" d="M559.48,191.33c-.09,4.04-.09,8.12-.06,12.17,0,.27,0,.54,0,.81-2.84-3.81-4.88-5.75-9.7-6.54q3.67-3.63,7.34-7.26c.1.08-.3,1.18,2.43.82Z"/>
          <g>
            <path class="cls-18" d="M551.4,185.61q-8.14,6.04-16.28,12.09c-.81-.02-1.62,0-2.43-.01-.54,0-1.08,0-1.62,0-4.03-.06-8.27.58-12.16-.87q.5-18.65,1-37.31c10.85,6.84,21.44,17.14,31.5,26.11Z"/>
            <path class="cls-33" d="M551.4,185.61c1.85,1.65,3.77,3.23,5.65,4.9q-3.67,3.63-7.34,7.26c-2.98-.49-10.17.03-14.6-.07q8.14-6.04,16.28-12.09Z"/>
            <path class="cls-12" d="M519.9,159.5q-.5,18.65-1,37.31c-.33-.12-1.08.06-1.62,0,.32-6.21.38-12.45.9-18.65q.86-9.32,1.72-18.65Z"/>
          </g>
          <g>
            <path class="cls-11" d="M535.12,197.7c4.43.1,11.62-.41,14.6.07,4.82.78,6.86,2.73,9.7,6.54.11,12.4.75,24.93,1.44,37.32-2.42,5.15-6.65,12.46-7.39,17.81-.19,1.4-.83,1.97-.83,3.24-.17-.2-1.83-1.15-2.43-1.63.55-2.39-4.63-3.86-4.84-4.49-.47-1.41,1.26-15.8-.66-29.61-.3-2.13,1.19-2.98.83-4.46-.33-1.36-10.94-21.21-12.85-24.8.81.01,1.62,0,2.43.01Z"/>
            <path class="cls-35" d="M550.21,261.04c-1.34-1.1-2.77-1.62-4.04-2.45-4.98-3.26-10.86-6.29-16.18-9,4.48,3.31,7.64-13.64,14.71-22.64,1.93,13.81.19,28.2.66,29.61.21.63,5.39,2.09,4.84,4.49Z"/>
            <path class="cls-34" d="M532.69,197.69c1.92,3.6,12.53,23.45,12.85,24.8.36,1.48-1.13,2.33-.83,4.46-7.07,8.99-10.23,25.94-14.71,22.64-4.67-2.38-9.76-4.42-14.57-6.56.02-2.16-.03-4.33.03-6.49.48,6.1,5.48,7.72,6.46,5.3.57-5.31.2-41.36,2.24-42.57,1.44-.86,7.38,1.68,6.9-1.59.54,0,1.08,0,1.62,0Z"/>
            <path class="cls-34" d="M518.9,196.81c3.9,1.45,8.13.81,12.16.87.47,3.27-5.47.73-6.9,1.59-2.04,1.22-1.67,37.26-2.24,42.57-.98,2.41-5.98.8-6.46-5.3.41-13.18,1.13-26.56,1.82-39.74.55.07,1.29-.11,1.62,0Z"/>
          </g>
        </g>
      </g>
      <path class="cls-35" d="M394.98,321.91c.56,18.55,8.17,48.68,9.41,64.53.33,4.18.71,12.78-2.47,6.88-3.23-15.19-7.61-30.16-10.32-45.47-1.5-8.47-2.92-17.02-3.93-25.57.6-.83,5.88-.28,7.3-.37Z"/>
      <path class="cls-21" d="M350.82,232.47c7.72,11.08,14.52,22.88,22.54,33.77,5.41,7.35,14.96,16.18,16.11,22.39-30.52-20.21-35.37-22.91-55.27-57.87q-7.12,3.61-14.23,7.23c-.24-14.1-.99-28.05-.6-42.18.45-16.32-2.26-10.19,12.92,11.83,5.84,8.47,12.63,16.36,18.53,24.83Z"/>
      <path class="cls-21" d="M360.55,233.33c7.65,2.73,41.45,55.57,42.7,59.02.69,1.9.11,3.4-.03,5.27-4.68-2.99-9.12-5.93-13.74-8.99-1.15-6.2-10.7-15.04-16.11-22.39-8.02-10.89-14.82-22.7-22.54-33.77,3.22,1.17,9.27.7,9.73.86Z"/>
      <g>
        <path class="cls-36" d="M510.69,541.5c-1.55,1.46-3.76,1.49-3.26,3.23-.27,0-.54,0-.81,0-.12-.59-.52-1.1-.8-1.63,2.14-2.69.17-7.66.05-10.54-.41-10.17.03-58.14,1.14-65.7.08-.52,2.17.13,2.48-9.72.27.08.61-.09.81,0,2.62,1.25,39.51,30.82,46.06,35.51-14.48,16.63-29.62,33.74-45.67,48.85Z"/>
        <path class="cls-11" d="M505.01,541.47c.07.08.51,1.09.8,1.63.29.52.68,1.04.8,1.63-4.68.03-9.14-.63-13.78-.88-16.9-.9-45.41-5.88-47.83-5.92q6.21-25.52,12.42-51.04c3.19,4.98,38.73,44.17,47.58,54.58Z"/>
        <path class="cls-34" d="M501.48,436.81c.8,6.27,15.79,9.11,8.82,20.32-.2-.09-.54.07-.81,0-2.93-.83-16.32,8.52-19.52,11.26-1.41.06-2.21,1.02-4.87.79-4.8-.42-2.58-7.3-6.05-7.33-4.37,3.36-8.96,6.44-13.43,9.67q-4.84-4.49-9.69-8.97c.15-8.63.9-17.26.94-25.95q22.31.11,44.61.22Z"/>
        <path class="cls-7" d="M505.01,541.47c-8.85-10.41-44.39-49.6-47.58-54.58-.09-.14-1.93-.78-2.42-2.45,4.69,1.45,13.56-13.35,17.09-11.68,9.03,15.76,19.19,31.33,26.53,47.99,2.33,5.3,7.55,17.34,6.39,20.72Z"/>
        <path class="cls-33" d="M485.1,469.18q10.39,31.69,20.77,63.37c.12,2.88,2.09,7.86-.05,10.54-.29-.54-.73-1.54-.8-1.63,1.17-3.38-4.05-15.41-6.39-20.72-7.34-16.66-17.5-32.23-26.53-47.99-3.53-1.68-12.41,13.12-17.09,11.68-.93-3.12.85-6.16.84-6.48,3.64-1.24,6.68-4.22,9.77-6.44,4.47-3.22,9.06-6.31,13.43-9.67,3.47.03,1.24,6.91,6.05,7.33Z"/>
        <path class="cls-34" d="M497.57,406.78c9.62,9.7,7.02,8.9,6.4,17.07q-23.53,1.91-47.06,3.82v-1.62c9.59-4.86,18.99-10.22,28.47-15.27,11.22-5.98,11.6-3.67,12.19-3.99Z"/>
        <path class="cls-11" d="M503.98,423.85c-.2,2.69-2.58,12.31-2.5,12.97q-22.31-.11-44.61-.22c.01-2.97.03-5.95.04-8.92q23.53-1.91,47.06-3.82Z"/>
        <path class="cls-11" d="M465.62,471.51c-3.09,2.22-6.13,5.2-9.77,6.44-.08-5.12-.01-10.29.08-15.41q4.84,4.49,9.69,8.97Z"/>
        <path class="cls-18" d="M507.01,466.85c-1.11,7.55-1.55,55.53-1.14,65.7q-10.39-31.69-20.77-63.37c2.67.24,3.46-.72,4.87-.79,5.7-.25,11.36-1.14,17.04-1.54Z"/>
        <path class="cls-24" d="M509.49,457.13c-.32,9.85-2.4,9.2-2.48,9.72-5.69.4-11.34,1.28-17.04,1.54,3.21-2.73,16.59-12.09,19.52-11.26Z"/>
      </g>
      <g>
        <path class="cls-1" d="M371.18,539.99c-5.92.86-13.89.89-20.29,1.52-8.73.86-24.15,2.97-30.84,3.09.09-.93-.14-2.17.01-2.43,3.17-5.45,46.23-49.09,55.46-59.75.22,4.97-1.67,5.76-1.65,6.08.27,5.02,8.76,37.13,10.3,48.72-.43,1.19-11.2,2.52-12.99,2.77Z"/>
        <path class="cls-34" d="M374.14,436.18c.9,14.86,1.59,29.75,2.21,44.62q-12.31-11.42-24.63-22.83c-.43.04-4.19,6.5-4.5,7.28-5.77-1.42-21.46-9.02-25.1-9.05-.52,0-1.14-.11-1.62,0,1.54-2.41-2.68-5.92-2.39-7.72.26-1.61,9.28-6.96,9.79-11.71q23.12-.29,46.24-.58Z"/>
        <path class="cls-11" d="M374.18,427.26c.12,2.96-.22,5.97-.04,8.92q-23.12.29-46.24.58c.82-7.53-9.07-22.63,3.39-29.18.43.29,1.15-.85,1.22-.81,14.99,9.73,26.39,13.33,41.67,20.49Z"/>
        <g>
          <path class="cls-25" d="M322.12,456.2c.76,2.31,2.33,8.07,2.38,9.75.3,9.17-.95,47.08-1.91,56.77-.22,2.23-.51,4.28-.84,6.48-12.4-10.44-24.19-22.31-39.6-28.18q2.82,3.46,5.64,6.92c-2.03-2.22-16.15-14.76-16.14-15.9,6.48-4.25,45.88-35.25,48.85-35.85.48-.1,1.1,0,1.62,0Z"/>
          <path class="cls-10" d="M321.76,529.2c-.44,2.92-1.03,6.03-1.67,8.91-.31,1.41-1.01,2.56-.83,4.05-1.9.08-3.36-2.38-4.85-4.08-8.81-10.08-17.58-20.28-26.62-30.14q-2.82-3.46-5.64-6.92c15.42,5.88,27.21,17.74,39.6,28.18Z"/>
        </g>
        <g>
          <path class="cls-18" d="M376.35,480.8c.09,2.08-.82,1.53-.82,1.62-9.22,10.66-52.28,54.3-55.46,59.75h-.81c-.17-1.49.52-2.64.83-4.06,2.91,2.66,2.79-5.97,4.93-11.74,6.61-17.89,15.93-35.02,21.36-53.43q7.31-1.99,14.62-3.98c-13.21-15.63-8.89-3.72-13.78-2.1.07-.56-.11-1.32,0-1.62.31-.77,4.07-7.24,4.5-7.28q12.31,11.42,24.63,22.83Z"/>
          <path class="cls-7" d="M326.94,465.95c-.04,5.35,16.42,4.37,15.36,10.22-8.15,14.74-11.36,32.65-19.7,46.54.96-9.69,2.21-47.6,1.91-56.77h2.43Z"/>
          <path class="cls-33" d="M320.09,538.11c.64-2.89,1.22-6,1.67-8.91.33-2.21.62-4.25.84-6.48,8.34-13.89,11.55-31.81,19.7-46.54,1.06-5.84-15.4-4.87-15.36-10.22,5.49-.8,15.66,2.45,20.27.91,4.89-1.63.57-13.53,13.78,2.1q-7.31,1.99-14.62,3.98c-5.43,18.41-14.74,35.54-21.36,53.43-2.13,5.77-2.02,14.39-4.93,11.74Z"/>
        </g>
        <path class="cls-11" d="M347.22,465.24c-.12.31.06,1.06,0,1.62-4.62,1.54-14.78-1.72-20.27-.91h-2.43c-.06-1.68-1.62-7.44-2.38-9.76,3.64.03,19.33,7.62,25.1,9.05Z"/>
      </g>
      <g>
        <g>
          <path class="cls-36" d="M593.25,251.52c-1.07.26-2.2.55-3.25.79-11.99,2.8-24.42,4.82-36.54,7.12.74-5.35,4.97-12.66,7.39-17.81,12.4-26.39,26.07-52.6,37.71-79.3,5.54-12.73,10.56-32.75,12.3-26.3-.32,13.81,21.93,98.81,20.57,103.93-.52,1.97-33.68,10.49-38.18,11.57Z"/>
          <g>
            <path class="cls-25" d="M560.86,241.63c-.69-12.39-1.33-24.92-1.44-37.32,0-.27,0-.54,0-.81,7.97-13.28,17.47-24.82,28.57-35.55,3.53-1.72,6.84-4.23,10.57-5.63-11.63,26.7-25.31,52.91-37.71,79.3Z"/>
            <path class="cls-25" d="M587.99,167.95c-11.1,10.73-20.6,22.27-28.57,35.55-.03-4.05-.03-8.12.06-12.17.14-6.28-.9-12.64-.34-12.98.7-.43,4.47.45,5.68.03,3.32-1.16,18.6-8.2,23.17-10.43Z"/>
          </g>
        </g>
        <path class="cls-40" d="M586.64,439.67c-.09,0,.38,1.02-1.63.8-4.39-.47-7.32-1.88-11.34-3.3-.04-2.5-6.54-4.13,7.36-11.32,1.46,4.64,4.95,8.83,5.61,13.82Z"/>
        <path class="cls-34" d="M612.45,468.19c-.11-.03-1.44-1.52-1.61-1.63,2.71-1.81.49-3.79.84-6.48,3.35,2.93,9.65,10.82.77,8.12Z"/>
        <g>
          <g>
            <path class="cls-11" d="M599.9,381.34c1.12.2.75.8.81.82q-1.7,14.59-3.39,29.18c-3.65-.41-7.17.77-10.55.76-.41,0-2.59-1.42-8.11-.85-3.52-11.32-9.4-22.42-12-34.13,11.02,1.79,22.24,2.29,33.24,4.22Z"/>
            <path class="cls-9" d="M633.93,389.62c-.11.2,1.63-.11-.83,4.46-3.08,5.72-14.28,20.44-15.53,23.04.05-1.25-1.08-.63-1.62-.82-3.48-1.21-13.03-4.61-15.39-4.94-1.05-.15-2.19.1-3.24-.02q1.7-14.59,3.39-29.18c11.27,2.05,22.31,3.84,33.22,7.47Z"/>
          </g>
          <g>
            <path class="cls-18" d="M633.93,389.62c-10.91-3.63-21.95-5.42-33.22-7.47-.06-.01.31-.62-.81-.82,4.71-20.61,7.39-41.72,11.67-62.4,2.3-11.12,5.51-22.19,8.28-33.22,4.56,6.34,36.43,52.46,37.03,55.75.38,2.07-14.23,34.54-16.42,38.85-3.32,6.56-6.27,8.79-6.54,9.3Z"/>
            <path class="cls-33" d="M619.05,283.29c-5.43,6.01-9.82,14.02-13.89,21.02-14.03,14.7-29.21,28.22-41.59,44.4-1.83-15.25-2.63-29.43-3.83-44.63,7.75-1.43,14.67-5.28,21.94-8,11.71-4.38,23.77-7.85,34.95-13.61.15.2,1.35-.66,2.43.82Z"/>
            <path class="cls-7" d="M599.9,381.34c-10.99-1.93-22.22-2.43-33.24-4.22-.32-1.44-.51-2.66-.79-4.06,12.25-10.48,38.57-48.13,40.81-50.49,2.32-2.45,2.9,1.45,4.88-3.63-4.27,20.68-6.95,41.79-11.67,62.4Z"/>
            <path class="cls-7" d="M619.05,283.29c.81,1.12.72,2.33.8,2.44-2.76,11.02-5.98,22.09-8.28,33.22-1.98,5.07-2.56,1.18-4.88,3.63-2.24,2.36-28.56,40.01-40.81,50.49-.76-3.79-.98-7.55-1.57-11.36,9.73-11.61,20.08-23.42,28.57-35.95,4.72-6.96,8.1-14.26,12.27-21.43,4.07-7,8.47-15.01,13.89-21.02Z"/>
            <path class="cls-21" d="M564.31,361.69c-.73-4.73-.32-9.47-.75-12.98,12.38-16.19,27.55-29.71,41.59-44.4-4.17,7.17-7.56,14.47-12.27,21.43-8.49,12.53-18.84,24.35-28.57,35.95Z"/>
          </g>
          <g>
            <path class="cls-25" d="M585.11,257.97c-3.43,4.39-6.45,9.3-9.8,13.74-1.4,1.86-2.69,3.8-4.08,5.66-2.88,3.83-8.01,10.94-11.42,12.92-.43-4.83-3.16-17.19-4.76-21.92q15.03-5.2,30.06-10.39Z"/>
            <path class="cls-37" d="M590,252.32c-1.25,2.06-3.44,3.79-4.9,5.65q-15.03,5.2-30.06,10.39c-.88-2.62.71-2.11-2.4-5.69,0-1.27.63-1.84.83-3.24,12.11-2.3,24.55-4.32,36.54-7.12Z"/>
          </g>
          <path class="cls-17" d="M621.5,443.09c6.37,6.63,6.85,13.17.31,19.47-21.08-7.42,5.14-10.3-10.84-21.95.56-.32,1.28-1.14,1.63-1.61,6.28.53,5.05,8.1,8.9,4.1Z"/>
          <path class="cls-20" d="M585.01,440.47c-1.61,2.64-2.88,11.35-2.5,13.78q-3.66,1.2-7.31,2.4c-.01-.14-2.32-.02-2.43-1.23-.08-.91,1-12.69.9-18.25,4.02,1.42,6.95,2.83,11.34,3.3Z"/>
          <g>
            <path class="cls-9" d="M598.08,258.85c5.95,8,12.59,15.53,18.54,23.62-11.17,5.77-23.24,9.23-34.95,13.61-5.57,2.04-7.18-10.49-10.45-18.71,1.39-1.85,2.68-3.8,4.08-5.66q11.39-6.43,22.78-12.86Z"/>
            <path class="cls-34" d="M581.67,296.08c-7.27,2.72-14.19,6.58-21.94,8-.36-4.53.47-9.26.07-13.79,3.41-1.98,8.54-9.09,11.42-12.92,3.28,8.22,4.88,20.75,10.45,18.71Z"/>
            <path class="cls-11" d="M593.25,251.52c2.08,1.95,3.44,5.46,4.83,7.32q-11.39,6.43-22.78,12.86c3.35-4.44,6.38-9.35,9.8-13.74,1.45-1.86,3.64-3.6,4.9-5.65,1.05-.25,2.18-.54,3.25-.79Z"/>
          </g>
          <path class="cls-17" d="M621.5,443.09c-3.85,4-2.63-3.57-8.9-4.1.49-.67,2.86-8.22,4.92-11.33,2.12.56,15.46,10.9,3.98,15.43Z"/>
          <g>
            <path class="cls-32" d="M586.77,412.09c2.88,9.67,7.83,17.99,6.35,28.42-.33-.02-3.29-.54-6.48-.84-.66-4.99-4.14-9.17-5.61-13.82-1.05-3.33-2.14-13.91-2.36-14.61,5.52-.57,7.7.85,8.11.85Z"/>
            <path class="cls-39" d="M597.32,411.34c1.06.12,2.19-.13,3.24.02q-1.69,13.98-3.38,27.97c.63.9,3.69.2,4.86.43,2.13.41,4.83-.82,6.48,1.65-2.11.27-11.1-.63-15.41-.89,1.49-10.43-3.47-18.75-6.35-28.42,3.38,0,6.9-1.17,10.55-.76Z"/>
            <path class="cls-14" d="M617.57,417.11c-7.3,15.22-.86,10.33-.05,10.54-2.06,3.12-4.43,10.66-4.92,11.33-.35.48-1.07,1.29-1.63,1.61-1.02.59-1.28.65-2.44.8-1.65-2.47-4.35-1.25-6.48-1.65q6.95-11.73,13.91-23.45c.54.19,1.67-.43,1.62.82Z"/>
            <path class="cls-16" d="M615.95,416.3q-6.95,11.73-13.91,23.45c-1.18-.23-4.23.47-4.86-.43q1.69-13.98,3.38-27.97c2.36.33,11.9,3.74,15.39,4.94Z"/>
          </g>
        </g>
      </g>
      <g>
        <path class="cls-20" d="M249.05,471.24c-5.41,2.1-5.69-.6-6.46-4.9,6.42-.78,3.42,2.26,6.46,4.9Z"/>
        <g>
          <path class="cls-25" d="M230.31,162.11c3.28,8.39,15.44,31.27,21.68,44.72,2.44,5.26,4.43,13.37,6.43,11.79,1.03-14.26,6.02-27.55,10.75-40.91.2.04,3.16-1.85,4.06-.39.73,1.19-.08,24.24-.14,27.98-.2,13.19-1.19,26.6-2.63,39.73-1.87-2.75-19.11-23.77-20.56-24.44-2.32-1.07-36.4-5.03-44.98-8.34,5.37-26.31,11.46-52.49,15.81-79.01l1.63-.8c1.69,10.19,4.2,20,7.96,29.65Z"/>
          <path class="cls-25" d="M270.45,245.04c.38.55,1.04,4.56,1.62.82.96,1.94,4.41,7.67,6.43,11.39-12.62-4.06-26.04-4.77-38.9-7.49-.49-.1-1.13.1-1.62,0-.49-.11-1.14.1-1.62,0-4.25-.96-36.42-9.38-37.26-11.14-.8-1.67,5.07-22.72,5.81-26.33,8.58,3.3,42.65,7.26,44.98,8.34,1.45.67,18.69,21.69,20.56,24.44Z"/>
          <g>
            <path class="cls-36" d="M265.12,176.88c-5.52,4.19-13.45,22.64-13.13,29.95-6.24-13.45-18.4-36.33-21.68-44.72,10.4,3.14,26.82,12.03,34.8,14.77Z"/>
            <path class="cls-3" d="M265.12,176.88c.58.2,2.84.56,4.05.83-4.73,13.36-9.72,26.65-10.75,40.91-2,1.58-3.99-6.53-6.43-11.79-.32-7.31,7.6-25.75,13.13-29.95Z"/>
          </g>
          <path class="cls-25" d="M272.07,245.86c-.58,3.74-1.24-.27-1.62-.82.33.09,1.58.74,1.62.82Z"/>
        </g>
        <g>
          <path class="cls-37" d="M278.5,257.25c.49.9,1.74.93,2.42,3.26-3.59,1.5-4.27-.87-5.68.38-1.07.95-8.8,25.72-9.06,27.13q-13.29-19.13-26.58-38.26c12.85,2.72,26.28,3.43,38.9,7.49Z"/>
          <path class="cls-11" d="M215.94,441.07c-2.53,1.31-5.38,2.65-7.32,4.83-3.77-2.54-7.84,2.7-9.73-.05-.22-13.48-.76-15.28,9.84-21.04.03.09,1.39-.3,1.62.41,1.72,5.37,3.6,10.58,5.6,15.85Z"/>
          <path class="cls-35" d="M208.62,445.9c.55.37,3.9,7.44,5.63,9.36q-5.49,3.42-10.98,6.84c-.76-.27-6.03-14.23-6.01-15.04.02-.6,1.63-1.11,1.63-1.21,1.89,2.74,5.96-2.49,9.73.05Z"/>
          <path class="cls-23" d="M249.05,471.24c-3.04-2.64-.04-5.68-6.46-4.9-.37-2.09.45-5.34.04-7.3,6.29.18,2.31-10.13,4.13-14.58,4.32,7.19,1.23,7.27,2.37,11.77.54,2.11,9.12,10.04-.07,15.01Z"/>
          <path class="cls-15" d="M244.33,441.21c.79.73,1.84,2.29,2.42,3.26-1.82,4.45,2.16,14.76-4.13,14.58-.21-1-7.06-2.08-.72-18.66.11.07,1.46-.07,2.43.82Z"/>
          <path class="cls-40" d="M244.33,441.21c-.97-.89-2.32-.75-2.43-.82-.17-.11-1.47-2.39-1.61-2.44q3.69-7.28,7.37-14.56c2.25,4.08,7.62,7.95,6.44,9.36-12.55.91-5.75,7.81-9.78,8.47Z"/>
          <path class="cls-35" d="M215.45,458.1c10.83,6.37-5.2,18.1-6.92,6.05q3.46-3.02,6.92-6.05Z"/>
          <path class="cls-34" d="M246.86,421.75c.23.56.51,1.1.8,1.63q-3.69,7.28-7.37,14.56c-.32-.12-1.05.07-1.62,0,1.92-6.2,6-18.76,8.19-16.18Z"/>
          <g>
            <path class="cls-21" d="M191.08,383.35c-2.68-5.8-21.12-44.2-20.86-46.74.29-2.85,29.31-40.86,33.49-46.47.01,31.06-3.52,61.87-5.33,92.85q-3.65.18-7.3.37Z"/>
            <path class="cls-33" d="M231.2,309.74c4.45,3.09,3.34,1.74,5.67,1.65q13.34,8.58,26.68,17.17c-.89,11.2-1.85,31.42-3.45,40.94-.1.57-1.61,1.89-1.63,2.02-25.97-30.21-28.45-30.58-41.85-65.91,4.78-2.42,9.44,5.24,14.58,4.13Z"/>
            <path class="cls-7" d="M217.88,377.81c.19,2.23.8,1.54.8,1.63.02.27-.03.54,0,.81q-12.99,3.18-25.99,6.36c-.5-1.1-1.1-2.16-1.61-3.25q3.65-.18,7.3-.37c1.81-30.98,5.34-61.79,5.33-92.85.25-.33.37-2.36,4.09-7.28,7.22,31.11,7.39,63.29,10.07,94.95Z"/>
            <path class="cls-33" d="M213.45,290.18c-1.41,3.22,1.37,8.38,2.36,13.8.03.18-1.45.82-.83,3.65,2.87,13.2,15.5,48.56,19.95,65.8.51,3.8-8.02,2.8-17.06,4.38-2.68-31.66-2.85-63.84-10.07-94.95.94-1.25,1.56-1.52,1.63-1.61.53,3.42,2.14,6.11,4.01,8.94Z"/>
            <path class="cls-18" d="M216.62,305.61c13.4,35.33,15.88,35.7,41.85,65.91-.28,1.53-.52,2.57-.83,4.05-4.36.45-8.68.6-12.99,1.56q-12.98,1.15-25.97,2.3c0-.09-.61.6-.8-1.63,9.03-1.58,17.57-.58,17.06-4.38-4.44-17.24-17.08-52.61-19.95-65.8-.62-2.83.86-3.46.83-3.65.08.65.55.96.8,1.63Z"/>
            <path class="cls-7" d="M265.3,303.42c1.22-.04.64,1.01.8,1.63-8.24.58-22.56,6.09-29.23,6.34-2.33.09-1.22,1.44-5.67-1.65-1.98-1.38-15.96-16.86-17.75-19.56-1.87-2.83-3.48-5.52-4.01-8.94.59-.77.97-1.57,1.63-2.43,6.45,5.71,51.16,21.52,54.22,24.6Z"/>
            <path class="cls-21" d="M266.1,305.05c.32,1.2-2.23,19.48-2.55,23.51q-13.34-8.58-26.68-17.17c6.68-.26,20.99-5.77,29.23-6.34Z"/>
            <path class="cls-21" d="M231.2,309.74c-5.14,1.11-9.8-6.55-14.58-4.13-.25-.67-.73-.97-.8-1.63-1-5.42-3.78-10.58-2.36-13.8,1.79,2.7,15.76,18.18,17.75,19.56Z"/>
          </g>
          <g>
            <path class="cls-11" d="M239.61,249.76q13.29,19.13,26.58,38.26c-.14.76.97,10.45-.89,15.41-3.07-3.09-47.77-18.9-54.22-24.6,7.36-9.52,16.6-18.32,23.66-27.46,2.92,3.71,6.15,7.57,8.87,11.4,23.63,33.42,26.9,32.77,2.44-1.61-2.69-3.78-4.96-7.89-8.05-11.4.49.11,1.13-.1,1.62,0Z"/>
            <path class="cls-24" d="M237.99,249.75c3.1,3.51,5.37,7.62,8.05,11.4q-1.22.81-2.44,1.61c-2.71-3.83-5.95-7.69-8.87-11.4.35-.45.64-1.68,1.63-1.61.49.11,1.13-.1,1.62,0Z"/>
            <path class="cls-24" d="M246.04,261.15c24.46,34.38,21.19,35.03-2.44,1.61q1.22-.81,2.44-1.61Z"/>
          </g>
          <g>
            <path class="cls-11" d="M218.68,380.24c.86,9.99,1.84,20.01,2.28,30.02-4.44.8-5.3,1.55-8.94,3.2-.21.1-2.04.27-4.06,1.6-2.9-7.17-11.1-19.33-15.27-28.47q12.99-3.18,25.99-6.36Z"/>
            <path class="cls-1" d="M257.64,375.57c-.02.11,1.31-.2.8,2.03-2.55,11.29-8.01,22.23-10.71,33.61-3.99-.58-8.11-2.32-12.15-2.49.66-4.04-.71-28.4.15-29.61.26-.37,7.53-1.67,8.93-1.98,4.31-.96,8.63-1.11,12.99-1.56Z"/>
            <path class="cls-34" d="M244.65,377.13c-1.4.31-8.67,1.61-8.93,1.98-.85,1.21.51,25.56-.15,29.61-3.39-.15-10.19.98-13.8,1.55-.26.04-.55-.05-.81,0-.45-10.02-1.42-20.04-2.28-30.02-.02-.27.03-.54,0-.81q12.98-1.15,25.97-2.3Z"/>
          </g>
          <g>
            <path class="cls-16" d="M247.72,411.21c-1.26,5.29-2.98,5.27-.86,10.54-2.19-2.57-6.27,9.99-8.19,16.18-2.07-.26-.9.99-2.44.8-.06-4.72-11.78-1.37-12.13-6.55.33-4.12-2.85-15.75-2.32-21.91,3.61-.57,10.4-1.7,13.8-1.55,4.05.18,8.17,1.91,12.15,2.49Z"/>
            <path class="cls-39" d="M212.02,413.47c3.68,2-.73,1.39-.82,2.02-.7,4.97,3.39,6.61,4.02,8.13,2.03,4.93,7.78,22.54,8.88,8.56.35,5.18,12.07,1.83,12.13,6.55-9.59-1.21-11.93-1.98-20.29,2.33-2-5.27-3.88-10.47-5.6-15.85-.23-.71-1.59-.33-1.62-.41-.15-.46.91-5.59-.76-9.74,2.03-1.34,3.85-1.51,4.06-1.6Z"/>
            <path class="cls-32" d="M220.96,410.27c.26-.05.55.05.81,0-.53,6.16,2.65,17.79,2.32,21.91-1.1,13.98-6.85-3.63-8.88-8.56-.63-1.52-4.71-3.16-4.02-8.13.09-.64,4.5-.03.82-2.02,3.63-1.65,4.5-2.4,8.94-3.2Z"/>
          </g>
        </g>
      </g>
      <g>
        <g>
          <path class="cls-18" d="M506.29,123.74c.64-20.67,1.45-85.16.51-101.39,10.61,18.25,18.86,40.49,29.71,59.77-7.14,8.67-21.9,34.46-26.97,40.42-.41.48-2.41,1.25-3.25,1.2Z"/>
          <path class="cls-21" d="M332.71,123.69c-3.54-5.29-28.54-37.86-29-40.3-.15-.79-.08-2.37.02-3.24.36-3.21,25.1-51.33,28.68-57.85,1.31,27.01-1.38,80.25.31,101.39Z"/>
        </g>
        <path class="cls-22" d="M351.68,59.7c-1.02,1.23-3.19,2.14-4.07,3.63-8.92,15.05-3.62,46,19.26,41.87,7.19,1.45,13.97.53,21.09-.71-8.95,6.7-21.28,8.79-32.49,8.76-8.57-6.5-18.05-13.61-18.94-25.24-5.19-4.07-2.1,16.49-2.13,20.27-.04,5.95-.84,12.01-.9,17.84-.55-1-.7-1.23-.8-2.44-1.68-21.15,1.01-74.38-.31-101.39.42-.77.59-3.49,1.65-4.86h.81q-.12,24.54-.24,49.08c4.54-5.4,29.96-22.37,17.07-6.81Z"/>
        <path class="cls-1" d="M505.21,15.04c-.08.72.32,2.09-.42,2.43-5.08,2.33-58-.3-68.54-.34q.82-2.02,1.64-4.05c22.45.53,44.87,1.38,67.31,1.96Z"/>
        <path class="cls-1" d="M400.58,12.9l-.02,4.06c-21.86-.05-43.82,1.42-65.7.48h-.81c.49-.64.86-2.26,1.23-2.43,3.17-1.46,56.31-1.95,65.31-2.11Z"/>
        <path class="cls-34" d="M434.65,12.26c-10.46-.2-21.18-.28-31.63-.16,2.22-1.33,13.33-11.96,14.26-12.1,1.73-.25,14.51,10.65,17.38,12.25Z"/>
        <path class="cls-9" d="M434.65,12.26c.46,0,.67.77,3.24.83q-.82,2.02-1.64,4.05c-11.9-.05-23.79-.15-35.69-.18l.02-4.06c1.74-.03,1.81-.79,2.44-.8,10.45-.13,21.18-.04,31.63.16Z"/>
        <path class="cls-32" d="M355.47,113.25c-8.58-.02-13.3-.29-21.06-4.97.03-3.78-3.06-24.34,2.13-20.27.88,11.63,10.37,18.74,18.94,25.24Z"/>
        <g>
          <path class="cls-16" d="M387.96,104.49c-7.13,1.23-13.91,2.16-21.09.71-2.26-.46-1.53-.79-1.62-.82,44.21.53,31.68-59.66-9.51-45.47,30.75-22,63.34,22.31,32.22,45.58Z"/>
          <g>
            <path class="cls-5" d="M365.25,104.38c-18.87-5.51-26.32-29.36-11.95-43.86.4-.4,1.83-1.17,2.44-1.61,41.19-14.19,53.72,46,9.51,45.47Z"/>
            <path class="cls-39" d="M353.3,60.52c-14.37,14.5-6.92,38.35,11.95,43.86.09.03-.64.36,1.62.82-22.88,4.13-28.18-26.82-19.26-41.87.88-1.49,3.06-2.4,4.07-3.63q.81.41,1.62.82Z"/>
            <g>
              <path class="cls-26" d="M369.89,67.09c14.05-.78,17.2,22.51,3.93,25.16-19.74,3.95-19.91-24.28-3.93-25.16Z"/>
              <path class="cls-8" d="M369.06,71.14c14.06-2.76,17.46,17.73-.09,18.66-12.43-6.89-4.46-17.76.09-18.66Z"/>
            </g>
          </g>
        </g>
        <g>
          <path class="cls-20" d="M506.79,22.35c.94,16.23.14,80.72-.51,101.39-.07,2.1.34,13.21-.47,13.79-10.44-.9-20.88,1.28-31.24,1.47-26.38.47-82.51-.03-110.31-.55-9.8-.18-19.74-1.68-29.6-.96-1.9-1.41-1.21-6.69-1.16-11.36.06-5.83.86-11.89.9-17.84,7.76,4.68,12.48,4.95,21.06,4.97,11.21.03,23.54-2.07,32.49-8.76,31.12-23.27-1.47-67.58-32.22-45.58-.61.44-2.05,1.21-2.44,1.61q-.81-.41-1.62-.82c12.89-15.57-12.53,1.4-17.07,6.81q.12-24.54.24-49.07c21.88.94,43.85-.53,65.7-.48,11.9.03,23.79.13,35.69.18,10.54.04,63.46,2.67,68.54.34.74-.34.34-1.71.42-2.43,2.62-.64,1.32,2.75,1.59,7.31Z"/>
          <path class="cls-22" d="M453.09,56.96c-13.54,8.58-14.59,37.67-1.45,46.23,6.02,3.92,24.52,4.37,31.22,1.78,5.52.66-7.68,5.77-13.83,7.23-.19-7.28-10.09,5.11-25.52-5.81-12.42-8.79-8.37-37.39-3.43-43.82,3.04-3.96,6.75-2.57,8.95-6.44,3.32-.6,3.85.86,4.05.83Z"/>
          <path class="cls-22" d="M440.08,62.58c-4.94,6.43-8.99,35.03,3.43,43.82,15.43,10.92,25.33-1.48,25.52,5.81-4.68,1.12-10.66,2.18-15.42,2.36.01-.55.21-1.47-.4-1.62-6.31-1.57-19.74-3.9-22.25-11.06-1.42-4.06-.8-31.8.17-34.07.21-.5,7.84-6.35,8.95-5.23Z"/>
          <path class="cls-32" d="M449.03,56.13c-2.2,3.87-5.91,2.49-8.95,6.44-1.11-1.12-8.74,4.73-8.95,5.23-.97,2.27-1.59,30.01-.17,34.07,2.51,7.16,15.94,9.49,22.25,11.06.6.15.41,1.08.4,1.62-7.71.28-24.56-.49-26.72-10.27-.4-1.82-.36-35.53.19-37.31,1.68-5.45,17.06-9.96,21.95-10.84Z"/>
          <g>
            <path class="cls-16" d="M482.86,104.97c-6.7,2.59-25.2,2.14-31.22-1.78-13.14-8.55-12.09-37.65,1.45-46.23,5.7-.73,20.42-6.14,32.03.97,14.91,9.13,14.85,40.41-2.26,47.03Z"/>
            <g>
              <path class="cls-5" d="M460.78,58.62c26.08-4.95,39.07,27.04,19.26,41.46-10.97,7.99-23.77,6.04-31.2-5.43-7.37-11.37-2.72-33.25,11.94-36.04Z"/>
              <g>
                <path class="cls-26" d="M466.41,68.38c17.27-3.01,19.12,21.65,6.37,24.37-19.78,4.22-20.9-21.83-6.37-24.37Z"/>
                <path class="cls-8" d="M466.39,72.44c6.62-.89,14.82,2.58,13.33,10.21-13.17,14.23-26.73,1.15-13.33-10.21Z"/>
              </g>
            </g>
          </g>
        </g>
      </g>
    </g>
    <g>
      <path class="cls-4" d="M723.46,347.76c1.29,94.49,1.92,189.1.1,283.58-.29,15.02,2.46,40.14-3.29,52.38-83.94,20.89-236.14,71.53-309.63,87.84q.85-171.07,1.71-342.14c63.12-14.56,250.06-73.09,294.44-80.73,5.6-.96,10.77-2.66,16.68-.94Z"/>
      <g>
        <path class="cls-30" d="M121.75,346.81c-.69,1.82,4.92,3.61,6.8,4.14,94.13,26.79,190.79,49.75,283.79,78.48q-.85,171.07-1.71,342.14c-.37.08.83,1.58-7.58.99-3.24-.51-6-1.4-9.08-2.1-72.67-16.45-209.73-62.3-289.83-83.64,1.32-19.84,1.13-39.73,1.06-59.59-.34-93.14.28-186.34,2.91-279.45,6.99,1.43,7.92.1,13.65-.96Z"/>
        <path class="cls-30" d="M181.46,495.31c15.14,7.73,139.46,36.61,143.02,41.3,2.59,3.41-1.78,66.7-1.14,76.54-16.12-5.79-144.74-37.27-147.56-42.35-1.93-3.47,1.27-63.17,1.88-73.97q1.9-.76,3.8-1.52Z"/>
      </g>
    </g>
    <g>
      <g>
        <g>
          <polygon class="cls-31" points="215.26 593.76 215.28 600.97 225.18 603.92 225.2 613.47 215.29 610.5 215.32 627.46 206.31 624.73 206.23 581.58 226.19 587.44 226.2 597 215.26 593.76"/>
          <polygon class="cls-31" points="258.41 630.93 258.41 640.54 228.31 631.41 244.86 602.52 231.1 598.45 231.09 588.88 260.22 597.43 243.62 626.47 258.41 630.93"/>
          <polygon class="cls-31" points="263.2 598.31 272.43 601.02 272.44 644.77 263.22 641.97 263.2 598.31"/>
        </g>
        <g>
          <path class="cls-31" d="M204.2,544.02l6.9-6.05,12.16,3.45,6.99,10.03.02,14.09-6.96,6.02-12.15-3.53-6.93-10.01-.03-14.01ZM211.11,545.99l.02,14.03,12.15,3.51-.02-14.06-12.16-3.47Z"/>
          <polygon class="cls-31" points="231.63 542.2 204.18 534.43 211.08 528.37 224.66 532.19 231.63 542.2"/>
          <polygon class="cls-31" points="240.42 534.6 232 522.59 212.41 517.13 204.16 524.42 240.42 534.6"/>
          <polygon class="cls-31" points="204.14 512.82 250.51 525.79 240.21 511.23 213.85 503.97 204.14 512.82"/>
          <polygon class="cls-31" points="204.11 499.28 262.51 515.35 250.74 498.64 215.46 489.06 204.11 499.28"/>
        </g>
      </g>
      <g>
        <polygon class="cls-31" points="231.63 542.2 231.67 573.96 238.66 567.93 238.64 552.23 231.63 542.2"/>
        <polygon class="cls-31" points="240.42 534.6 248.83 546.62 248.85 569.3 240.46 576.51 240.42 534.6"/>
        <polygon class="cls-31" points="250.51 525.79 260.75 540.22 260.77 570.95 250.61 579.46 250.51 525.79"/>
        <polygon class="cls-31" points="262.51 515.35 274.34 532.11 274.35 572.83 262.57 582.93 262.51 515.35"/>
      </g>
    </g>
  </g>
</svg>
